<?xml version="1.0" encoding="UTF-8"?>
<svg xmlns="http://www.w3.org/2000/svg" xmlns:xlink="http://www.w3.org/1999/xlink" width="24px" height="24px" viewBox="0 0 24 24" version="1.1">
<g id="surface1">
<path style=" stroke:none;fill-rule:nonzero;fill:rgb(0%,0%,0%);fill-opacity:1;" d="M 17.757812 13.789062 C 17.710938 13.769531 15.960938 12.90625 15.652344 12.792969 C 15.523438 12.75 15.386719 12.703125 15.242188 12.703125 C 15.007812 12.703125 14.808594 12.824219 14.65625 13.054688 C 14.480469 13.3125 13.949219 13.933594 13.789062 14.117188 C 13.765625 14.140625 13.738281 14.171875 13.71875 14.171875 C 13.703125 14.171875 13.433594 14.058594 13.351562 14.023438 C 11.472656 13.207031 10.050781 11.246094 9.855469 10.917969 C 9.824219 10.867188 9.824219 10.847656 9.824219 10.847656 C 9.832031 10.824219 9.894531 10.757812 9.925781 10.726562 C 10.023438 10.632812 10.125 10.507812 10.226562 10.386719 C 10.273438 10.332031 10.320312 10.273438 10.367188 10.21875 C 10.511719 10.050781 10.578125 9.921875 10.652344 9.769531 L 10.691406 9.691406 C 10.871094 9.328125 10.71875 9.019531 10.667969 8.921875 C 10.625 8.839844 9.886719 7.054688 9.808594 6.867188 C 9.617188 6.417969 9.371094 6.207031 9.023438 6.207031 C 8.992188 6.207031 9.023438 6.207031 8.886719 6.210938 C 8.722656 6.21875 7.828125 6.335938 7.433594 6.585938 C 7.011719 6.851562 6.304688 7.695312 6.304688 9.175781 C 6.304688 10.511719 7.148438 11.773438 7.515625 12.25 C 7.523438 12.261719 7.539062 12.289062 7.5625 12.324219 C 8.957031 14.355469 10.691406 15.863281 12.453125 16.566406 C 14.148438 17.246094 14.949219 17.324219 15.40625 17.324219 C 15.597656 17.324219 15.75 17.308594 15.886719 17.292969 L 15.972656 17.285156 C 16.558594 17.234375 17.84375 16.566406 18.136719 15.753906 C 18.367188 15.113281 18.425781 14.414062 18.273438 14.160156 C 18.167969 13.988281 17.988281 13.902344 17.757812 13.789062 Z M 17.757812 13.789062 "/>
<path style=" stroke:none;fill-rule:nonzero;fill:rgb(0%,0%,0%);fill-opacity:1;" d="M 12.214844 0 C 5.714844 0 0.425781 5.25 0.425781 11.699219 C 0.425781 13.785156 0.984375 15.828125 2.042969 17.617188 L 0.015625 23.589844 C -0.0195312 23.699219 0.0078125 23.824219 0.0898438 23.90625 C 0.171875 23.992188 0.292969 24.019531 0.40625 23.984375 L 6.632812 22.007812 C 8.335938 22.917969 10.265625 23.398438 12.214844 23.398438 C 18.710938 23.398438 24 18.148438 24 11.699219 C 24 5.25 18.710938 0 12.214844 0 Z M 12.214844 20.960938 C 10.378906 20.960938 8.601562 20.429688 7.074219 19.429688 C 6.996094 19.378906 6.898438 19.363281 6.808594 19.390625 L 3.691406 20.382812 L 4.695312 17.414062 C 4.730469 17.316406 4.714844 17.210938 4.652344 17.128906 C 3.492188 15.539062 2.875 13.664062 2.875 11.699219 C 2.875 6.59375 7.066406 2.4375 12.214844 2.4375 C 17.359375 2.4375 21.550781 6.59375 21.550781 11.699219 C 21.550781 16.804688 17.359375 20.960938 12.214844 20.960938 Z M 12.214844 20.960938 "/>
</g>
</svg>
